<svg width="211" height="57" xmlns="http://www.w3.org/2000/svg" xmlns:xlink="http://www.w3.org/1999/xlink"><defs><path id="a" d="M.456 56.654h209.828V.452H.456z"/><path id="c" d="M.456 56.654h209.828V.452H.456z"/></defs><g fill="none" fill-rule="evenodd"><path d="M207.29.936a2.514 2.514 0 0 0-2.512 2.51 2.515 2.515 0 0 0 2.512 2.512 2.513 2.513 0 0 0 2.51-2.511 2.513 2.513 0 0 0-2.51-2.511m0 5.507a3 3 0 0 1-2.996-2.996A2.999 2.999 0 0 1 207.29.452a2.998 2.998 0 0 1 2.994 2.995 3 3 0 0 1-2.994 2.996" fill="#FFF"/><g><path d="M66.024.563S55.711 20.95 54.014 24.3A159989.78 159989.78 0 0 0 41.964.563H21.84v39.63h11.212V11.498h2.29c.587 1.205 14.012 28.695 14.012 28.695h9.276l14.015-28.695h2.29v28.695h11.211V.563H66.024z" fill="#FFF"/><mask id="b" fill="#fff"><use xlink:href="#a"/></mask><path fill="#FFF" mask="url(#b)" d="M.445 40.193H13.06V.563H.445z"/></g><g><path d="M66.024.563S55.711 20.95 54.014 24.3A159989.78 159989.78 0 0 0 41.964.563H21.84v39.63h11.212V11.498h2.29c.587 1.205 14.012 28.695 14.012 28.695h9.276l14.015-28.695h2.29v28.695h11.211V.563H66.024z" fill="#FFF"/><mask id="d" fill="#fff"><use xlink:href="#c"/></mask><path fill="#FFF" mask="url(#d)" d="M.445 40.193H13.06V.563H.445z"/></g><g fill="#FFF"><path d="M118.369 9.535c.524 1.032 6.322 12.48 7.622 15.05h-16.534c1.3-2.57 7.101-14.018 7.623-15.05h1.289zM88.382 40.192h13.33s2.915-5.716 3.433-6.728h25.161l3.43 6.728h13.312L126.94.563H108.508l-20.126 39.63zM200.368.51h-12.846l-10.821 12.911L166.079.511h-15.424l15.66 18.607L147.68 40.19h16.448l12.673-14.442 12.495 14.442h16.457l-18.638-21.073L202.778.51h-2.41zM207.482 3.435c.46 0 .573-.092.573-.57 0-.46-.082-.543-.528-.543h-.87v1.113h.825zm-.824.534v1.078h-.627V1.788h1.664c.714.016.988.238.988.977 0 .483-.027.835-.58.918V3.7c.445.039.553.278.553.739v.608h-.624V4.44c0-.274-.115-.464-.415-.47h-.96zM145.055 56.397h-1.92l4.11-10.07h1.806l4.152 10.07h-1.963l-3.085-7.667zM160.213 52.628h3.412l-1.691-4.324-1.721 4.324zm-1.45 3.77h-1.948l4.28-10.071h1.735l4.25 10.07h-1.99l-.924-2.29h-4.508l-.895 2.29zM173.55 50.523h1.024c.653 0 1.17-.123 1.55-.37.38-.247.568-.62.568-1.124 0-.464-.153-.825-.461-1.081-.31-.256-.714-.384-1.216-.384-.426 0-.787.114-1.08.341-.295.228-.508.54-.64.939l-1.536-.654c.274-.673.701-1.195 1.278-1.565.58-.37 1.276-.554 2.092-.554.483 0 .933.06 1.35.178.418.118.78.29 1.088.519a2.4 2.4 0 0 1 .726.86c.175.347.262.747.262 1.203 0 .312-.061.596-.184.853a2.478 2.478 0 0 1-.47.668c-.189.19-.403.344-.64.462-.237.12-.468.207-.697.264v.028c.257.029.527.09.81.184.285.096.546.24.783.435.238.194.432.441.584.74.15.299.226.661.226 1.088 0 .483-.1.915-.305 1.294a3.07 3.07 0 0 1-.824.974 3.73 3.73 0 0 1-1.223.62c-.47.142-.974.213-1.516.213a4.53 4.53 0 0 1-1.32-.178 3.418 3.418 0 0 1-1.026-.498 3.3 3.3 0 0 1-.753-.76 3.85 3.85 0 0 1-.497-.968l1.579-.598c.189.484.45.856.782 1.117.332.26.776.391 1.336.391.625 0 1.11-.145 1.45-.434.342-.289.512-.68.512-1.173 0-.598-.225-1.032-.677-1.302-.448-.27-1.11-.406-1.981-.406h-.954v-1.322zM186.475 54.861h5.005v1.537h-6.738V46.326h6.526v1.537h-4.793v2.617h4.494v1.465h-4.494zM198.89 50.764h1.35c.303 0 .582-.028.84-.085.255-.057.474-.148.66-.272.184-.123.327-.281.426-.472.1-.19.15-.418.15-.685a1.4 1.4 0 0 0-.157-.693 1.252 1.252 0 0 0-.426-.451 1.856 1.856 0 0 0-.647-.243 4.44 4.44 0 0 0-.818-.071h-1.379v2.972zm-1.779-4.438h3.299c.532 0 1.024.056 1.48.164.455.109.845.283 1.171.52.327.236.584.538.769.903.185.365.277.808.277 1.33 0 .521-.097.97-.29 1.344-.196.374-.461.68-.798.918-.336.236-.732.41-1.187.519a6.296 6.296 0 0 1-1.465.163h-1.478v4.21h-1.778v-10.07z"/></g></g></svg>